<svg width="288" height="29" viewBox="0 0 288 29" fill="none" xmlns="http://www.w3.org/2000/svg">
<path d="M220.272 0.745972H218.643V28.0258H220.272V0.745972Z" fill="white"/>
<path d="M228.541 6.54544V4.88H235.663V6.54544H233.164V12.74H231.039V6.54544H228.541Z" fill="white"/>
<path d="M236.568 12.7402V4.88013H242.365V6.54557H238.693V8.01266H241.943V9.56172H238.693V11.0747H242.483V12.7402H236.568Z" fill="white"/>
<path d="M229.069 23.8917V16.03H231.885L233.328 21.146H233.398L234.841 16.03H237.634V23.8917H235.816V18.6233H235.745L234.196 23.8917H232.506L230.946 18.6233H230.875V23.8917H229.069Z" fill="white"/>
<path d="M244.597 23.8917L244.057 22.3426H241.1L240.561 23.8917H238.473L241.464 16.03H243.753L246.756 23.8917H244.597ZM241.617 20.8657H243.553L242.613 18.1676H242.554L241.617 20.8657Z" fill="white"/>
<path d="M246.066 17.6972V16.0317H253.188V17.6972H250.688V23.8918H248.564V17.6972H246.066Z" fill="white"/>
<path d="M258.635 23.8917L258.096 22.3426H255.139L254.6 23.8917H252.511L255.503 16.03H257.791L260.794 23.8917H258.635ZM255.655 20.8657H257.591L256.652 18.1676H256.593L255.655 20.8657Z" fill="white"/>
<path d="M260.105 17.6972V16.0317H267.228V17.6972H264.728V23.8918H262.604V17.6972H260.105Z" fill="white"/>
<path d="M268.249 16.0317H270.373V23.8934H268.249V16.0317Z" fill="white"/>
<path d="M279.207 23.8918H276.662L274.573 20.7363L273.846 21.5346V23.8934H271.721V16.0317H273.846V19.1184L276.557 16.0317H278.998L276.122 19.3052L279.207 23.8918Z" fill="white"/>
<path d="M285.841 23.8917L285.302 22.3426H282.345L281.806 23.8917H279.717L282.709 16.03H284.997L288 23.8917H285.841ZM282.861 20.8657H284.797L283.858 18.1676H283.799L282.861 20.8657Z" fill="white"/>
<path d="M22.9178 0.742676L20.5377 1.02462H2.94567L0.565529 0.742676L0 8.20765H0.645851L2.29982 4.53582C3.10631 2.80153 3.71282 2.236 5.85035 2.236H9.27959V26.8078L6.61587 27.2914V28.0585H16.8642V27.2914L14.1612 26.8078V2.236H17.5904C19.7296 2.236 20.3738 2.80153 21.1819 4.53582L22.7965 8.20765H23.4424L22.9178 0.742676ZM11.7712 26.8078H11.6712C11.4925 20.6919 11.463 14.4924 11.5319 8.37813C11.5597 6.58319 11.6007 4.00799 11.6712 2.23436H11.7712C12.0253 10.3944 11.9925 18.6494 11.7712 26.8078Z" fill="white"/>
<path d="M53.8499 1.79181V1.02466H43.6016V1.79181L46.3046 2.27538V13.6532H33.6351V2.27538L36.3382 1.79181V1.02466H26.0898V1.79181L28.7536 2.27538V26.8078L26.0898 27.2914V28.0586H36.3382V27.2914L33.6351 26.8078V14.7432H46.3046V26.8078L43.6016 27.2914V28.0586H53.8499V27.2914L51.1862 26.8078V2.27538L53.8499 1.79181ZM31.2435 26.8078H31.1435C30.9649 20.6919 30.9354 14.4924 31.0042 8.37817C31.0337 6.58323 31.0731 4.00803 31.1435 2.2344H31.2435C31.4976 10.3944 31.4648 18.6495 31.2435 26.8078ZM48.7962 26.8078H48.6962C48.5176 20.6919 48.4881 14.4924 48.5569 8.37817C48.5848 6.58323 48.6258 4.00803 48.6962 2.2344H48.7962C49.0503 10.3944 49.0175 18.6495 48.7962 26.8078Z" fill="white"/>
<path d="M78.443 20.3919L76.7481 23.4982C75.3761 25.9603 74.1253 26.8472 70.7764 26.8472H67.2669C65.0884 26.8472 64.5228 25.9587 64.5228 24.0228V14.5416L70.8174 14.6629C72.673 14.7039 72.9959 15.1874 73.9237 18.5363H74.5286V9.57804H73.9237C72.9959 12.886 72.673 13.3302 70.8174 13.4105L64.5228 13.5318V2.236H70.4142C73.2385 2.236 74.4483 2.80153 75.6187 5.06036L77.112 7.84375H77.6775L76.9923 0.742676L74.7728 1.02462H56.9775V1.79177L59.6413 2.27534V26.8078L56.9775 27.2914V28.0585H77.6759L79.0479 20.3919H78.443ZM62.1329 26.8078H62.0329C61.8542 20.6919 61.8247 14.4924 61.8935 8.37813C61.9214 6.58319 61.9624 4.00799 62.0329 2.23436H62.1329C62.3853 10.3944 62.3542 18.6494 62.1329 26.8078Z" fill="white"/>
<path d="M164.992 20.3919L163.297 23.4982C161.925 25.9603 160.674 26.8472 157.325 26.8472H153.816C151.637 26.8472 151.072 25.9587 151.072 24.0228V14.5416L157.366 14.6629C159.222 14.7039 159.545 15.1874 160.473 18.5363H161.077V9.57804H160.473C159.545 12.886 159.222 13.3302 157.366 13.4105L151.072 13.5318V2.236H156.963C159.787 2.236 160.997 2.80153 162.167 5.06036L163.661 7.84375H164.226L163.541 0.742676L161.322 1.02462H143.526V1.79177L146.19 2.27534V26.8078L143.526 27.2914V28.0585H164.225L165.597 20.3919H164.992ZM148.68 26.8078H148.58C148.401 20.6919 148.372 14.4924 148.441 8.37813C148.469 6.58319 148.51 4.00799 148.58 2.23436H148.68C148.934 10.3944 148.901 18.6494 148.68 26.8078Z" fill="white"/>
<path d="M104.709 1.02466H92.9678V1.79181L95.6315 2.27538V26.8078L92.9678 27.2914V28.0586H103.498V27.2914L100.513 26.8078V17.1234H103.821C110.56 17.1234 114.917 14.1777 114.917 9.05353C114.918 3.7687 110.438 1.02466 104.709 1.02466ZM98.1231 26.8078H98.0215C97.8428 20.6919 97.8133 14.4924 97.8821 8.37817C97.91 6.58323 97.951 4.00803 98.0215 2.2344H98.1215C98.3755 10.3944 98.3444 18.6495 98.1231 26.8078ZM103.015 15.994L100.513 16.0743V2.23604H103.58C107.655 2.23604 109.996 4.57683 109.996 9.05517C109.996 13.2106 107.655 15.8333 103.015 15.994ZM109.853 14.7154C109.26 15.1317 108.611 15.4743 107.909 15.6563L107.894 15.6137C108.55 15.3563 109.158 14.9776 109.704 14.5318C111.947 12.7516 112.742 9.5748 111.984 6.86518C111.394 4.81944 109.796 3.15564 107.893 2.25407L107.911 2.21309C109.963 2.90156 111.742 4.63257 112.394 6.74551C113.251 9.58299 112.338 12.9926 109.853 14.7154Z" fill="white"/>
<path d="M181.656 12.5647L177.741 11.032C174.674 9.82226 173.02 8.61088 173.02 5.98814C173.02 3.4867 175.078 1.67045 178.145 1.67045C180.444 1.67045 182.584 2.88019 186.336 5.98814H186.377L186.418 2.23598C182.585 0.904939 180.325 0.501693 178.066 0.541034C172.861 0.541034 169.108 3.7293 169.108 8.04535C169.108 11.3943 171.045 13.6941 174.958 15.3087L178.912 16.9233C182.462 18.3757 184.116 19.6674 184.116 22.4114C184.116 25.4784 181.574 27.4143 178.346 27.4143C175.442 27.4143 172.657 25.7603 169.227 22.3704H169.147L169.106 26.6881C173.06 28.1405 175.522 28.5847 178.064 28.5437C183.633 28.5437 188.152 25.3161 188.152 20.2313C188.152 16.4381 185.731 14.1793 181.656 12.5647ZM186.08 21.9918L186.028 21.9885C186.096 21.064 186.028 20.1149 185.703 19.2445C185.062 17.4544 183.41 16.3135 181.769 15.5054C180.323 14.7874 178.115 13.999 176.597 13.381C174.473 12.5909 172.083 11.3697 171.45 9.00593C171.327 8.55187 171.276 8.08142 171.278 7.61424H171.33C171.557 10.6615 174.189 12.0352 176.782 12.9237C178.341 13.5285 180.513 14.294 181.989 15.0645C184.818 16.4922 186.705 18.6658 186.08 21.9918Z" fill="white"/>
<path d="M203.879 12.5647L199.964 11.032C196.898 9.82226 195.244 8.61088 195.244 5.98814C195.244 3.4867 197.301 1.67045 200.368 1.67045C202.668 1.67045 204.807 2.88019 208.559 5.98814H208.6L208.641 2.23598C204.808 0.904939 202.548 0.501693 200.289 0.541034C195.085 0.541034 191.331 3.7293 191.331 8.04535C191.331 11.3943 193.268 13.6941 197.181 15.3087L201.135 16.9233C204.685 18.3757 206.339 19.6674 206.339 22.4114C206.339 25.4784 203.797 27.4143 200.569 27.4143C197.665 27.4143 194.88 25.7603 191.45 22.3704H191.37L191.329 26.6881C195.283 28.1405 197.745 28.5847 200.287 28.5437C205.856 28.5437 210.375 25.3161 210.375 20.2313C210.375 16.4381 207.954 14.1793 203.879 12.5647ZM208.305 21.9918L208.252 21.9885C208.321 21.064 208.252 20.1149 207.928 19.2445C207.287 17.4544 205.635 16.3135 203.994 15.5054C202.548 14.7874 200.34 13.999 198.822 13.381C196.698 12.5909 194.306 11.3697 193.675 9.00593C193.552 8.55187 193.501 8.08142 193.503 7.61424H193.555C193.781 10.6615 196.414 12.0352 199.007 12.9237C200.566 13.5285 202.738 14.294 204.213 15.0645C207.043 16.4922 208.929 18.6658 208.305 21.9918Z" fill="white"/>
<path d="M135.819 18.3757C134.609 16.4382 133.56 15.5923 131.986 14.9858V14.7432C135.415 13.6941 138.159 11.4353 138.159 7.6815C138.159 3.5261 134.528 1.02466 129.121 1.02466H116.854V1.79181L119.518 2.27538V26.8078L116.854 27.2914V28.0586H127.103V27.2914L124.4 26.8078V15.3481H126.255C128.313 15.3481 129.765 16.1546 131.057 18.697L135.819 28.0586H141.669L135.819 18.3757ZM122.01 26.8078H121.91C121.731 20.6919 121.702 14.4924 121.77 8.37817C121.798 6.58323 121.839 4.00803 121.91 2.2344H122.01C122.264 10.3944 122.231 18.6495 122.01 26.8078ZM131.637 2.21309C136.027 3.08515 137.222 8.34375 134.65 11.6517C133.866 12.6729 132.825 13.4991 131.642 13.9892L131.622 13.9499C132.704 13.3384 133.656 12.4762 134.368 11.4566C135.799 9.43874 135.997 6.50783 134.583 4.43258C133.878 3.40971 132.806 2.64092 131.627 2.25899C131.624 2.25735 131.637 2.21309 131.637 2.21309ZM124.4 14.3006V2.23604H127.911C131.462 2.23604 133.278 4.41455 133.278 8.00607C133.278 10.6288 131.906 13.1303 129.727 14.3006H124.4ZM134.373 20.6378C133.799 19.6084 133.314 18.5282 132.593 17.5905C131.884 16.6644 131.007 15.8382 129.919 15.3809L129.95 15.294C131.111 15.6481 132.091 16.4595 132.855 17.384C133.63 18.3036 134.148 19.4052 134.735 20.4477C135.874 22.5361 136.986 24.6375 138.005 26.7882L137.925 26.8324C136.671 24.8047 135.507 22.7295 134.373 20.6378Z" fill="white"/>
</svg>
